<?xml version="1.0" standalone="no"?>
<!DOCTYPE svg PUBLIC "-//W3C//DTD SVG 20010904//EN"
 "http://www.w3.org/TR/2001/REC-SVG-20010904/DTD/svg10.dtd">
<svg version="1.0" xmlns="http://www.w3.org/2000/svg"
 width="500.000000pt" height="500.000000pt" viewBox="0 0 500.000000 500.000000"
 preserveAspectRatio="xMidYMid meet">
<metadata>
Created by potrace 1.11, written by Peter Selinger 2001-2013
</metadata>
<g transform="translate(0.000000,500.000000) scale(0.100000,-0.100000)"
fill="#000000" stroke="none">
<path d="M0 2500 l0 -2500 2500 0 2500 0 0 2500 0 2500 -2500 0 -2500 0 0
-2500z m4045 1263 l-310 -3 2 -123 c7 -339 7 -494 1 -484 -4 7 -8 -126 -8
-295 l0 -308 -310 0 -310 0 0 295 0 295 -315 0 -315 0 0 -310 0 -310 305 0
305 0 5 -23 c3 -12 5 -149 3 -304 -2 -155 0 -279 5 -276 4 2 7 -3 7 -11 0 -14
36 -16 310 -16 l310 0 0 305 0 305 258 0 c267 -1 309 -6 353 -46 18 -16 19
-33 19 -281 0 -169 4 -263 10 -263 6 0 10 24 10 53 1 28 2 165 3 302 l2 250
298 3 298 2 -3 -312 -3 -313 -300 -2 c-257 -2 -301 -4 -311 -18 -10 -13 -53
-15 -323 -15 l-311 0 0 -280 0 -280 -300 0 -301 0 1 258 c0 178 -4 268 -12
294 l-13 38 -620 0 -621 0 -17 -48 c-15 -42 -17 -82 -15 -295 l3 -247 -306 0
c-262 0 -308 -2 -319 -15 -11 -13 -54 -15 -302 -13 l-289 3 -3 290 c-2 160 -7
298 -11 308 -7 16 -31 17 -300 17 l-293 0 3 43 c2 23 4 304 5 625 l1 583 294
-3 295 -3 0 318 0 317 1873 -2 c1029 -2 1733 -4 1562 -5z m-237 -20 c-10 -2
-28 -2 -40 0 -13 2 -5 4 17 4 22 1 32 -1 23 -4z m542 3 c0 -2 -7 -7 -16 -10
-8 -3 -12 -2 -9 4 6 10 25 14 25 6z m3 -587 c-5 -5 -6 123 -3 284 l5 292 3
-284 c1 -157 -1 -288 -5 -292z m-633 -2529 c0 -13 -2477 -13 -2485 0 -4 7 420
10 1239 10 806 0 1246 -3 1246 -10z"/>
<path d="M588 2533 c-3 -10 -1 -27 2 -38 4 -11 7 -145 8 -299 1 -153 3 -281 6
-284 4 -3 6 114 6 260 l0 266 38 28 37 29 273 3 272 3 0 -306 0 -305 311 0
c251 0 313 3 324 14 8 7 11 17 7 21 -4 5 1 5 11 2 9 -4 17 -2 17 3 0 6 -4 10
-10 10 -6 0 -9 109 -9 295 0 162 -3 300 -6 305 -4 6 -231 10 -645 10 -600 0
-639 -1 -642 -17z"/>
<path d="M639 1297 c4 -4 133 -6 287 -5 l279 3 -287 5 c-158 3 -284 2 -279 -3z"/>
</g>
</svg>
